<svg xmlns="http://www.w3.org/2000/svg" viewBox="0 0 8.07 8.07">
  <defs>
    <style>
      .cls-1 {
        fill: #fafafa;
      }
    </style>
  </defs>
  <title>xxx</title>
  <g id="Layer_2" data-name="Layer 2">
    <g id="Layer_1-2" data-name="Layer 1">
      <path id="X_1" data-name="X 1" class="cls-1" d="M7.92,6.51,5.45,4,7.93,1.56a.5.5,0,0,0,0-.71L7.22.15a.5.5,0,0,0-.71,0L4,2.62,1.56.15a.5.5,0,0,0-.71,0L.15.85a.5.5,0,0,0,0,.71L2.62,4,.15,6.51a.5.5,0,0,0,0,.71l.71.71a.5.5,0,0,0,.71,0L4,5.45,6.51,7.92a.5.5,0,0,0,.71,0l.71-.71A.5.5,0,0,0,7.92,6.51Z"/>
    </g>
  </g>
</svg>
