<svg xmlns="http://www.w3.org/2000/svg" viewBox="0 0 90 90">
  <defs>
    <style>
      .cls-1 {
        fill: #141515;
      }

      .cls-2 {
        fill: #fff200;
      }
    </style>
  </defs>
  <title>Asset 1</title>
  <g id="Layer_2" data-name="Layer 2">
    <g id="Layer_1-2" data-name="Layer 1">
      <path class="cls-1" d="M45,0A45,45,0,1,0,90,45,45.05,45.05,0,0,0,45,0Zm0,84.2A39.2,39.2,0,1,1,84.21,45,39.25,39.25,0,0,1,45,84.2Z"/>
      <path class="cls-2" d="M45,5.8A39.2,39.2,0,1,0,84.21,45,39.25,39.25,0,0,0,45,5.8ZM58.06,19.71c4.12,0,7.46,5.19,7.46,11.59s-3.34,11.59-7.46,11.59S50.6,37.7,50.6,31.3,53.94,19.71,58.06,19.71ZM32,19.71c4.12,0,7.46,5.19,7.46,11.59S36.12,42.89,32,42.89,24.54,37.7,24.54,31.3,27.88,19.71,32,19.71Zm35.87,39a26.82,26.82,0,0,1-45.7-.5,2.9,2.9,0,0,1,5-2.92,21,21,0,0,0,35.76.38,2.9,2.9,0,0,1,4.94,3Z"/>
      <ellipse class="cls-1" cx="32" cy="31.3" rx="7.46" ry="11.59"/>
      <ellipse class="cls-1" cx="58.06" cy="31.3" rx="7.46" ry="11.59"/>
      <path class="cls-1" d="M66.91,54.74a2.9,2.9,0,0,0-4,1,21,21,0,0,1-35.76-.38,2.9,2.9,0,0,0-5,2.92,26.82,26.82,0,0,0,45.7.5A2.9,2.9,0,0,0,66.91,54.74Z"/>
    </g>
  </g>
</svg>
