<svg xmlns="http://www.w3.org/2000/svg" viewBox="0 0 175.57 175.03">
  <defs>
    <style>
      .cls-1 {
        fill: #222;
        stroke: #231f20;
        stroke-linecap: round;
        stroke-miterlimit: 10;
      }
    </style>
  </defs>
  <title>ring</title>
  <g id="Layer_2" data-name="Layer 2">
    <g id="Layer_1-2" data-name="Layer 1">
      <path class="cls-1" d="M172.82,51.21A55.74,55.74,0,0,0,124.65,2.89a301.21,301.21,0,0,0-72.72-.38A56.25,56.25,0,0,0,2.69,51.66a302.43,302.43,0,0,0-.12,71.61A56.2,56.2,0,0,0,51.8,172.5a298,298,0,0,0,35,2,297,297,0,0,0,38-2.41A56,56,0,0,0,173,123a298.94,298.94,0,0,0,2-35A298.42,298.42,0,0,0,172.82,51.21ZM31.77,88.46h0a56,56,0,0,1,56-56h0a56,56,0,0,1,56,56h0a56,56,0,0,1-56,56h0A56,56,0,0,1,31.77,88.46Z"/>
    </g>
  </g>
</svg>
