<svg xmlns="http://www.w3.org/2000/svg" viewBox="0 0 486.88 306.88">
  <defs>
    <style>
      .cls-1 {
        fill: #222;
      }
    </style>
  </defs>
  <title>chev</title>
  <g id="Layer_2" data-name="Layer 2">
    <g id="svg3001">
      <g id="g3003">
        <path id="path3005" class="cls-1" d="M486.88,63.44a38.28,38.28,0,0,1-11.56,28.13L271.88,295a38.8,38.8,0,0,1-28.44,11.88q-16.87,0-28.12-11.87L11.88,91.56Q0,80.31,0,63.44A38.8,38.8,0,0,1,11.88,35L35,11.56A40,40,0,0,1,63.44,0,38.28,38.28,0,0,1,91.56,11.56L243.44,163.44,395.31,11.56A38.28,38.28,0,0,1,423.44,0a40,40,0,0,1,28.44,11.56L475.31,35A40,40,0,0,1,486.88,63.44Z"/>
      </g>
    </g>
  </g>
</svg>
