<?xml version="1.0" encoding="utf-8"?>
<!-- Generator: Adobe Illustrator 21.1.0, SVG Export Plug-In . SVG Version: 6.00 Build 0)  -->
<svg version="1.1" id="Layer_1" xmlns="http://www.w3.org/2000/svg" xmlns:xlink="http://www.w3.org/1999/xlink" x="0px" y="0px"
	 viewBox="0 0 64 64" style="enable-background:new 0 0 64 64;" xml:space="preserve">
<style type="text/css">
	.st0{fill:none;stroke:#000222;stroke-width:2;stroke-linejoin:round;stroke-miterlimit:10;}
</style>
<g id="_x32_9_x5F_teaching_x5F_people">
	<g>
		<g>
			<g>
				<g>
					<line class="st0" x1="31" y1="52" x2="28" y2="52"/>
				</g>
				<path class="st0" d="M45,26l3,9v2h-5v9c0,3.3-2.7,6-6,6h-6v12"/>
				<path class="st0" d="M9,64V52c0-10-8-18.4-8-30S10.4,1,22,1c10,0,18.3,7,20.5,16.3"/>
			</g>
			<path class="st0" d="M18,22h27c8,0,9.5-5.1,9-9c-0.3-2.3-1.6-4.4-3-6c-3.8-3.7-8.3-6-14-6c-2.6,0-5.2,0.5-7.5,1.4"/>
			<polyline class="st0" points="22,27 17,22 22,17 			"/>
			<path class="st0" d="M46,64V52h6c3.3,0,6-2.7,6-6v-9h5v-2l-5-13"/>
			<path class="st0" d="M34.1,27c-2,5.3-7.1,9-13.1,9c-7.7,0-14-6.3-14-14S13.3,8,21,8c6,0,11.1,3.7,13.1,9"/>
		</g>
	</g>
</g>
<g id="Layer_1_1_">
</g>
</svg>
